<?xml version="1.0" standalone="no"?>
<!DOCTYPE svg PUBLIC "-//W3C//DTD SVG 20010904//EN"
 "http://www.w3.org/TR/2001/REC-SVG-20010904/DTD/svg10.dtd">
<svg version="1.0" xmlns="http://www.w3.org/2000/svg"
 width="141.000000pt" height="141.000000pt" viewBox="0 0 141.000000 141.000000"
 preserveAspectRatio="xMidYMid meet">
<metadata>
Created by potrace 1.11, written by Peter Selinger 2001-2013
</metadata>
<g transform="translate(0.000000,141.000000) scale(0.100000,-0.100000)"
fill="#000000" stroke="none">
<path d="M925 1145 c-137 -104 -300 -201 -374 -221 -23 -6 -24 -5 -17 36 15
94 -32 92 -199 -5 l-128 -75 -83 0 -82 0 -7 -95 c-4 -53 -5 -98 -2 -101 2 -3
56 29 118 70 120 79 280 166 304 166 20 0 25 -13 17 -45 -7 -23 -17 -31 -69
-46 -34 -11 -131 -61 -219 -115 -87 -52 -160 -96 -161 -98 -2 -1 -6 -24 -9
-51 l-7 -48 79 55 c43 30 111 74 149 96 78 46 206 94 223 83 6 -3 12 -31 14
-61 3 -51 5 -55 29 -58 26 -3 214 65 310 113 30 15 91 50 135 78 l82 50 10 61
c5 34 9 62 7 64 -1 2 -56 -32 -121 -74 -237 -155 -422 -218 -407 -140 4 21 17
29 84 51 87 29 249 122 380 219 77 57 87 68 92 102 4 22 9 54 13 72 4 17 3 32
-2 31 -5 0 -76 -52 -159 -114z"/>
<path d="M320 669 c-61 -28 -230 -131 -230 -141 0 -5 57 -7 128 -6 l127 3 17
65 c18 74 21 100 11 100 -5 0 -28 -10 -53 -21z"/>
<path d="M505 519 c-4 -6 2 -13 14 -16 12 -3 21 -8 21 -12 0 -3 -14 -55 -32
-114 -21 -71 -38 -112 -50 -118 -35 -19 -18 -29 47 -29 67 0 76 5 49 24 -14
11 -14 17 -1 62 13 44 17 49 46 52 29 3 32 1 29 -19 -6 -46 19 -27 36 27 18
57 14 82 -8 52 -7 -10 -28 -21 -45 -24 -31 -7 -32 -6 -25 22 17 72 22 77 62
70 20 -3 43 -6 50 -6 6 0 12 -11 12 -25 0 -14 4 -25 9 -25 13 0 18 9 26 53 l7
37 -120 0 c-75 0 -123 -4 -127 -11z"/>
<path d="M760 515 c0 -9 9 -15 21 -15 13 0 19 -5 16 -12 -2 -7 -19 -60 -38
-117 -24 -73 -39 -105 -52 -109 -10 -2 -16 -10 -14 -16 7 -19 196 -13 234 7
54 29 72 93 33 120 -20 14 -19 14 5 25 14 7 31 23 37 37 10 22 8 30 -9 53 -25
33 -48 40 -150 41 -68 1 -83 -2 -83 -14z m161 -25 c42 -23 11 -74 -48 -82 -35
-5 -38 -1 -24 34 5 13 12 31 15 41 6 19 28 22 57 7z m-17 -143 c17 -27 -12
-70 -54 -78 -19 -4 -39 -4 -43 0 -4 4 -2 29 5 55 12 45 14 47 47 44 19 -2 39
-11 45 -21z"/>
<path d="M1010 515 c0 -8 7 -15 15 -15 8 0 15 -7 15 -15 0 -41 -63 -291 -75
-301 -36 -27 -15 -34 100 -34 129 0 124 -3 140 84 6 28 4 36 -8 36 -8 0 -20
-13 -26 -29 -14 -32 -47 -51 -90 -51 -33 0 -42 7 -34 26 3 10 22 14 59 14 54
0 72 14 34 28 -20 7 -20 8 3 40 21 30 25 32 76 30 50 -3 55 -5 62 -31 6 -24 4
-29 -17 -37 -47 -18 -25 -30 56 -30 61 0 80 3 80 14 0 7 -8 16 -18 18 -15 4
-24 28 -41 104 -36 156 -36 159 -52 161 -8 1 -60 -56 -117 -128 -57 -72 -106
-129 -108 -126 -3 2 5 49 17 103 16 77 26 104 45 120 14 11 21 23 18 27 -4 4
-36 7 -71 7 -49 0 -63 -3 -63 -15z m252 -125 c4 -29 3 -30 -34 -30 l-39 0 28
34 c31 39 39 39 45 -4z"/>
</g>
</svg>
